<svg width="36" height="36" viewBox="0 0 36 36" fill="none" xmlns="http://www.w3.org/2000/svg">
<path d="M23.3449 3.90711C24.183 3.07011 25.5668 3.09711 26.4521 3.98249L29.6347 7.16511C30.5122 8.04261 30.5494 9.43199 29.709 10.2712L14.1637 25.8187C13.7452 26.2361 12.9454 26.7019 12.3593 26.8616L7.96275 27.342C6.80738 27.657 6.111 26.9662 6.4035 25.8142L6.777 21.2557C6.92325 20.6786 7.38675 19.8664 7.79962 19.4546L23.3438 3.90711H23.3449ZM9.39038 21.0442C9.23738 21.1972 8.96288 21.681 8.90887 21.8902L8.58488 25.1899L11.6854 24.7387C11.9205 24.6746 12.4054 24.3934 12.573 24.2257L28.1182 8.68049L24.9368 5.49899L9.39038 21.0442ZM22.4741 6.36749L27.2475 11.1409L25.6567 12.7316L20.8834 7.95824L22.4753 6.36749H22.4741ZM4.5 30.375H31.5C32.25 30.375 32.625 30.75 32.625 31.5C32.625 32.25 32.25 32.625 31.5 32.625H4.5C3.75 32.625 3.375 32.25 3.375 31.5C3.375 30.75 3.75 30.375 4.5 30.375Z" fill="#0F131A"/>
</svg>
