<svg width="28" height="28" viewBox="0 0 28 28" fill="none" xmlns="http://www.w3.org/2000/svg">
<path d="M13.7539 3.50184L13.844 3.5C14.3181 3.5 14.7788 3.66233 15.1475 3.96064L24.8958 11.8345C25.1334 12.0264 25.3257 12.2685 25.459 12.5434C25.5923 12.8182 25.6632 13.1192 25.6667 13.4246C25.6702 13.7301 25.6062 14.0325 25.4793 14.3104C25.3524 14.5883 25.1657 14.8347 24.9325 15.032L15.1843 23.2808C14.8822 23.5364 14.5134 23.7003 14.1212 23.7532C13.729 23.806 13.3299 23.7457 12.971 23.5791C12.612 23.4126 12.3081 23.1469 12.0952 22.8134C11.8823 22.4799 11.7692 22.0924 11.7693 21.6967V18.2847L11.6651 18.297C9.23816 18.5947 6.91656 20.0612 4.68685 22.7466L4.54473 22.9194C4.38037 23.123 4.15593 23.2697 3.90336 23.3384C3.6508 23.4071 3.383 23.3943 3.13811 23.302C2.89322 23.2096 2.68372 23.0423 2.53945 22.8239C2.39518 22.6055 2.3235 22.3472 2.33462 22.0857C2.64825 14.5279 5.81824 10.1506 11.7558 9.21395L11.7693 9.2115V5.57474C11.7692 5.04005 11.9756 4.526 12.3454 4.13979C12.7152 3.75358 13.2198 3.52504 13.7539 3.50184ZM14.1049 5.25192C14.044 5.20286 13.9704 5.17203 13.8926 5.16298C13.8149 5.15393 13.7362 5.16703 13.6656 5.20077C13.5949 5.23451 13.5353 5.28752 13.4935 5.35368C13.4517 5.41985 13.4294 5.49648 13.4293 5.57474V9.94045C13.4293 10.3656 13.1089 10.7215 12.6863 10.7662C7.48563 11.3132 4.64213 14.6137 4.07429 20.9114L4.07306 20.9249L4.16495 20.825C6.71503 18.0685 9.47216 16.6363 12.4222 16.5818L12.5999 16.58C13.0581 16.58 13.4293 16.9512 13.4293 17.41V21.6973C13.4292 21.7765 13.4518 21.854 13.4943 21.9208C13.5369 21.9875 13.5977 22.0407 13.6695 22.074C13.7414 22.1073 13.8212 22.1194 13.8997 22.1087C13.9781 22.0981 14.0519 22.0652 14.1123 22.014L23.8606 13.7653C23.9071 13.7258 23.9444 13.6765 23.9698 13.6209C23.9951 13.5653 24.0079 13.5049 24.0072 13.4438C24.0065 13.3827 23.9923 13.3225 23.9657 13.2676C23.9391 13.2126 23.9007 13.1642 23.8532 13.1258L14.1049 5.25192Z" fill="#6666FF"/>
</svg>
