<svg width="124" height="23" viewBox="0 0 124 23" fill="none" xmlns="http://www.w3.org/2000/svg">
<g clip-path="url(#clip0_8734_4461)">
<path d="M7.6955 22.9278L5.73165 21.7628C6.18007 20.9214 6.61944 20.2095 7.04975 19.627H0.232041L1.48795 1.66659H8.50046L7.27849 19.1416C8.31877 17.2646 8.94448 14.3521 9.15562 10.4041L9.79942 1.19736H18.4677L17.1088 20.6301C17.0734 22.0648 16.2788 22.7498 14.725 22.6851H12.5823L12.1608 20.3551H13.9139C14.4983 20.3551 14.8107 20.0665 14.8511 19.4894L15.1345 15.4362H10.9465C10.6605 17.6692 9.57682 20.1664 7.6955 22.9278ZM11.4875 10.485C11.463 10.8355 11.3988 11.2886 11.2951 11.8442C11.2558 12.4051 11.2264 12.8257 11.2068 13.1062H15.2974L15.569 9.2229H11.5758L11.4875 10.485ZM11.974 3.52736L11.7387 6.8929H15.7319L15.9672 3.52736H11.974ZM2.73926 17.1999H5.07676L5.45353 11.8118H3.11603L2.73926 17.1999ZM3.65573 4.09367L3.27896 9.48179H5.61646L5.99323 4.09367H3.65573ZM35.0991 15.9216L33.3024 15.1531L33.0178 19.2225H38.3746L38.1981 21.7466H20.472L20.6485 19.2225H26.0053L26.2899 15.1531L24.2882 15.9216L21.6636 7.49158L23.9648 6.61783L26.351 14.2793L27.0632 4.09367H22.3882L22.558 1.66659H38.9205L38.7507 4.09367H34.0757L33.3771 14.0851L36.7305 6.52075L38.9027 7.49158L35.0991 15.9216ZM29.4981 4.09367L28.4402 19.2225H30.4855L31.5434 4.09367H29.4981ZM45.6621 22.7174H43.2272L44.0555 10.8733C43.5467 11.65 43.0703 12.4266 42.6264 13.2033L40.572 11.9412C43.1765 8.12262 45.2079 4.14221 46.6663 0L48.9631 0.582499C48.3954 2.20055 47.6934 3.88333 46.8569 5.63082L45.9133 19.1254C48.0393 17.5073 49.8173 15.7598 51.2471 13.8829H47.0591L47.222 11.5529H52.2866L52.4156 9.70831H54.8505L54.7215 11.5529H59.8835L59.7206 13.8829H55.5325C56.5836 15.5657 58.1474 17.3455 60.2237 19.2225L58.5297 21.1641C56.8202 19.6108 55.4422 17.9604 54.3957 16.2129L53.9408 22.7174H51.5059L51.9608 16.2129C50.7347 17.9604 49.1259 19.6108 47.1344 21.1641L45.8862 19.5137L45.6621 22.7174ZM58.9751 9.2229H48.4563L49.0175 1.19736H59.5363L58.9751 9.2229ZM51.0541 6.8929H56.7031L56.9384 3.52736H51.2894L51.0541 6.8929ZM76.7511 0.614861C77.6487 3.56511 79.1764 6.32389 81.3344 8.8912L79.4709 10.4688C78.928 9.87552 78.4499 9.28492 78.0365 8.69702L77.9126 10.4688H71.2896L71.4118 8.72129C70.9816 9.3038 70.4863 9.88631 69.9261 10.4688L68.4629 9.10963L68.3247 9.69213C69.0647 11.1808 69.3408 12.8042 69.1529 14.5624C69.1077 17.0651 68.0855 18.2193 66.0863 18.0251H65.502L65.0805 15.6951H65.9571C66.4765 15.6951 66.7669 15.2555 66.8284 14.3764C66.9691 12.3646 66.657 10.7924 65.8921 9.65977L67.587 3.52736H65.9313L64.5736 22.944H62.2361L63.7568 1.19736H70.0875L69.9217 3.56781L68.7143 8.3006C70.8277 5.93286 72.5652 3.37094 73.9267 0.614861H76.7511ZM73.7851 17.9603L73.0848 11.2616L75.2547 10.8733L75.8416 16.407L77.7462 11.4558L79.8482 12.0383L77.0989 19.3195H79.9234L79.7605 21.6495H67.586L67.7489 19.3195H74.7614L75.4612 17.6692L73.7851 17.9603ZM70.4941 19.0607L69.2161 12.2648L71.4902 11.7794L72.7682 18.5752L70.4941 19.0607ZM75.1035 3.28465C74.2112 4.9027 73.1219 6.55311 71.8354 8.23588H77.6792C76.5118 6.35894 75.6533 4.70853 75.1035 3.28465ZM82.7555 21.0671L82.4247 18.8341L89.8244 17.4749L89.9876 19.3195H93.8834L94.1912 14.9185H90.4902L90.6531 12.5885H100.588L100.425 14.9185H96.6261L96.3183 19.3195H100.896L100.733 21.6495H89.1429L89.2651 19.902L82.7555 21.0671ZM83.5068 10.3232L83.475 7.99317L84.0661 7.89609C85.6288 5.04832 86.9136 2.45944 87.9206 0.129445L90.1065 0.906109C89.3305 2.71833 88.2004 4.95124 86.7162 7.60484L88.3855 7.41067C88.9864 6.24568 89.3654 5.46902 89.5224 5.08068L91.7014 5.95443C90.643 8.09026 89.1679 10.6144 87.276 13.5269L89.3484 13.1386L89.5751 15.4685L83.6635 16.4394L83.4369 14.1094L84.4176 14.0123C84.8524 13.3651 85.6617 12.0059 86.8455 9.93484L83.5068 10.3232ZM100.046 11.9736L96.2067 8.3815C94.8221 9.61125 93.1453 10.841 91.1763 12.0706L89.8511 10.129C93.1775 8.05788 95.8312 5.85735 97.8122 3.52736H91.6763L91.8393 1.19736H100.8L100.637 3.52736C99.915 4.56291 99.0611 5.63082 98.0752 6.73109L101.733 10.129L100.046 11.9736ZM114.072 22.1673C112.319 22.1673 111.505 21.2693 111.631 19.4732L112.369 8.91546H119.09L119.463 3.5759H112.45L112.62 1.14881H122.068L121.355 11.3425H114.634L114.09 19.1254C114.052 19.6647 114.231 19.9021 114.625 19.8374H118.521C119.036 19.9021 119.279 19.6755 119.25 19.1577L119.447 16.3423L121.855 16.7306L121.637 19.8374C121.65 21.5201 120.719 22.2968 118.845 22.1673H114.072ZM103.908 10.129L103.974 7.79901L104.663 7.70192C106.059 5.37193 107.404 2.84777 108.698 0.129445L110.975 1.00319C109.542 3.85096 108.382 6.05151 107.494 7.60484H108.858C109.075 7.28123 109.339 6.76345 109.648 6.05151C109.944 5.53374 110.166 5.14541 110.314 4.88652L112.486 5.85735C111.488 8.0579 110.046 10.5821 108.158 13.4298L110.607 13.2357L110.645 15.4685L103.877 16.1482L103.845 13.8182L105.118 13.7211C105.192 13.5916 105.341 13.3327 105.562 12.9444C106.062 12.2972 106.717 11.294 107.526 9.93484L103.908 10.129ZM103.076 19.2548L110.566 17.9928L110.792 20.3228L103.212 21.4877L103.076 19.2548Z" fill="#919499"/>
</g>
<defs>
<clipPath id="clip0_8734_4461">
<rect width="123.037" height="22.944" fill="white"/>
</clipPath>
</defs>
</svg>
