<svg width="48" height="48" viewBox="0 0 48 48" fill="none" xmlns="http://www.w3.org/2000/svg">
<path d="M25.9997 20.535C26.9187 21.0653 27.5893 21.9389 27.8642 22.9637C28.139 23.9885 27.9955 25.0805 27.4652 25.9995C26.9349 26.9185 26.0613 27.5891 25.0365 27.864C24.0117 28.1388 22.9197 27.9953 22.0007 27.465C21.0817 26.9347 20.411 26.061 20.1362 25.0363C19.8614 24.0115 20.0049 22.9195 20.5352 22.0005C21.0655 21.0815 21.9391 20.4108 22.9639 20.136C23.9887 19.8612 25.0807 20.0047 25.9997 20.535ZM37.9997 19.9995C39.0607 19.9995 40.0782 20.421 40.8285 21.1712C41.5787 21.9214 42.0002 22.939 42.0002 24C42.0002 25.061 41.5787 26.0785 40.8285 26.8288C40.0782 27.579 39.0607 28.0005 37.9997 28.0005C36.9387 28.0005 35.9212 27.579 35.1709 26.8288C34.4207 26.0785 33.9992 25.061 33.9992 24C33.9992 22.939 34.4207 21.9214 35.1709 21.1712C35.9212 20.421 36.9387 19.9995 37.9997 19.9995ZM12.0002 20.5365C12.4668 20.793 12.8776 21.14 13.2083 21.5573C13.5391 21.9746 13.7832 22.4537 13.9264 22.9666C14.0696 23.4795 14.109 24.0157 14.0422 24.544C13.9754 25.0723 13.8038 25.5819 13.5375 26.043C13.2712 26.5041 12.9156 26.9074 12.4914 27.2293C12.0672 27.5512 11.583 27.7851 11.0672 27.9174C10.5514 28.0497 10.0144 28.0777 9.48769 27.9997C8.96095 27.9218 8.45507 27.7395 7.9997 27.4635C7.10489 26.9211 6.45818 26.0498 6.19821 25.0363C5.93824 24.0228 6.0857 22.9477 6.60899 22.0416C7.13227 21.1355 7.98973 20.4705 8.99752 20.1892C10.0053 19.9078 11.0832 20.0325 12.0002 20.5365Z" fill="#0F131A"/>
</svg>
