<svg width="36" height="36" viewBox="0 0 36 36" fill="none" xmlns="http://www.w3.org/2000/svg">
<path d="M30.4619 21.3198H32.7203V21.3156C32.8817 21.3156 33.0071 21.4596 32.9843 21.6198L32.8697 22.4358C32.7711 23.1408 32.421 23.7863 31.8839 24.2534C31.3468 24.7205 30.6589 24.9776 29.9471 24.9774L29.3147 30.0258C29.3059 30.0895 29.2743 30.1478 29.2257 30.19C29.1772 30.2321 29.115 30.2552 29.0507 30.255H25.6559C25.6178 30.2549 25.5802 30.2466 25.5456 30.2307C25.511 30.2149 25.4802 30.1918 25.4552 30.163C25.4302 30.1343 25.4116 30.1006 25.4007 30.0641C25.3898 30.0276 25.3868 29.9892 25.3919 29.9514L26.0135 24.9774H16.8983C16.8605 24.9777 16.823 24.9699 16.7884 24.9546C16.7538 24.9392 16.7228 24.9166 16.6977 24.8883C16.6725 24.86 16.6537 24.8267 16.6424 24.7905C16.6312 24.7544 16.6278 24.7162 16.6325 24.6786L16.9541 22.0536C16.9599 22.011 16.9755 21.9704 16.9997 21.9348L25.9511 7.90384C26.3228 7.39166 26.8105 6.97478 27.3743 6.68736C27.9381 6.39994 28.5619 6.25015 29.1947 6.25024H32.2643C32.4257 6.25024 32.5493 6.39244 32.5283 6.55264L30.4619 21.3198ZM8.72393 16.2618H15.8099C15.9713 16.2618 16.0967 16.4058 16.0739 16.5654L16.0235 16.923C15.898 17.8147 15.4546 18.6311 14.7749 19.2218C14.0952 19.8125 13.225 20.1378 12.3245 20.1378H8.18153L6.78653 30.06C6.77768 30.1237 6.74605 30.182 6.69751 30.2242C6.64898 30.2663 6.58681 30.2894 6.52253 30.2892H2.84213C2.80404 30.2891 2.76643 30.2808 2.73181 30.2649C2.69719 30.2491 2.66635 30.226 2.64136 30.1972C2.61637 30.1685 2.59781 30.1348 2.5869 30.0983C2.576 30.0618 2.573 30.0234 2.57813 29.9856L5.34713 10.2588C3.75713 9.71884 2.55713 8.32504 2.55713 6.78484V6.51784C2.55713 6.37084 2.67713 6.25084 2.82353 6.25084H17.8613C18.0227 6.25084 18.1481 6.39484 18.1253 6.55504L18.0575 7.04044C17.9329 7.93286 17.4899 8.75013 16.8101 9.34159C16.1303 9.93305 15.2596 10.2588 14.3585 10.2588H9.56753L8.72393 16.2612V16.2618ZM28.0715 11.4186L21.7559 21.3198H26.5967L28.0715 11.4186Z" fill="#0F131A"/>
</svg>
