<svg width="20" height="20" viewBox="0 0 20 20" fill="none" xmlns="http://www.w3.org/2000/svg">
<path d="M10 18.75C14.8325 18.75 18.75 14.8325 18.75 10C18.75 5.16751 14.8325 1.25 10 1.25C5.16751 1.25 1.25 5.16751 1.25 10C1.25 14.8325 5.16751 18.75 10 18.75Z" fill="#FF8C1A" fill-opacity="0.1"/>
<path d="M10 1.25C14.8325 1.25 18.75 5.16751 18.75 10C18.75 14.8325 14.8325 18.75 10 18.75C5.16751 18.75 1.25 14.8325 1.25 10C1.25 5.16751 5.16751 1.25 10 1.25ZM10 2.5C5.85786 2.5 2.5 5.85786 2.5 10C2.5 14.1421 5.85786 17.5 10 17.5C14.1421 17.5 17.5 14.1421 17.5 10C17.5 5.85786 14.1421 2.5 10 2.5ZM10 5C10.3452 5 10.625 5.27982 10.625 5.625V10.3652L13.0938 12.835C13.3377 13.079 13.3378 13.4747 13.0938 13.7188C12.8497 13.9627 12.454 13.9627 12.21 13.7188L9.5625 11.0713C9.50242 11.0124 9.45437 10.9414 9.42188 10.8623C9.41667 10.8496 9.41352 10.8362 9.40918 10.8232C9.38823 10.7608 9.375 10.6945 9.375 10.625V5.625C9.375 5.27982 9.65482 5 10 5Z" fill="#FF8C1A"/>
<path d="M10 1.25V0.916667V0.916667V1.25ZM18.75 10H19.0833V10H18.75ZM10 18.75V19.0833V19.0833V18.75ZM1.25 10H0.916667V10H1.25ZM10 2.5V2.16667V2.16667V2.5ZM2.5 10H2.16667V10H2.5ZM10 17.5V17.8333V17.8333V17.5ZM17.5 10H17.8333V10H17.5ZM10.625 5.625H10.9583V5.625H10.625ZM10.625 10.3652H10.2917V10.5033L10.3893 10.6009L10.625 10.3652ZM13.0938 12.835L13.3295 12.5993L13.3295 12.5993L13.0938 12.835ZM13.0938 13.7188L13.3294 13.9545L13.3295 13.9545L13.0938 13.7188ZM12.21 13.7188L11.9743 13.9545L11.9743 13.9545L12.21 13.7188ZM9.5625 11.0713L9.79821 10.8356L9.79586 10.8333L9.5625 11.0713ZM9.42188 10.8623L9.11344 10.9887L9.11356 10.989L9.42188 10.8623ZM9.40918 10.8232L9.72529 10.7175L9.72521 10.7172L9.40918 10.8232ZM9.375 10.625H9.04167H9.375ZM9.375 5.625H9.04167V5.625H9.375ZM10 1.25V1.58333C14.6484 1.58333 18.4167 5.3516 18.4167 10H18.75H19.0833C19.0833 4.98341 15.0166 0.916667 10 0.916667V1.25ZM18.75 10H18.4167C18.4167 14.6484 14.6484 18.4167 10 18.4167V18.75V19.0833C15.0166 19.0833 19.0833 15.0166 19.0833 10H18.75ZM10 18.75V18.4167C5.3516 18.4167 1.58333 14.6484 1.58333 10H1.25H0.916667C0.916667 15.0166 4.98341 19.0833 10 19.0833V18.75ZM1.25 10H1.58333C1.58333 5.3516 5.3516 1.58333 10 1.58333V1.25V0.916667C4.98341 0.916667 0.916667 4.98341 0.916667 10H1.25ZM10 2.5V2.16667C5.67377 2.16667 2.16667 5.67377 2.16667 10H2.5H2.83333C2.83333 6.04196 6.04196 2.83333 10 2.83333V2.5ZM2.5 10H2.16667C2.16667 14.3262 5.67377 17.8333 10 17.8333V17.5V17.1667C6.04196 17.1667 2.83333 13.958 2.83333 10H2.5ZM10 17.5V17.8333C14.3262 17.8333 17.8333 14.3262 17.8333 10H17.5H17.1667C17.1667 13.958 13.958 17.1667 10 17.1667V17.5ZM17.5 10H17.8333C17.8333 5.67377 14.3262 2.16667 10 2.16667V2.5V2.83333C13.958 2.83333 17.1667 6.04196 17.1667 10H17.5ZM10 5V5.33333C10.1611 5.33333 10.2917 5.46392 10.2917 5.625H10.625H10.9583C10.9583 5.09573 10.5293 4.66667 10 4.66667V5ZM10.625 5.625H10.2917V10.3652H10.625H10.9583V5.625H10.625ZM10.625 10.3652L10.3893 10.6009L12.858 13.0706L13.0938 12.835L13.3295 12.5993L10.8607 10.1296L10.625 10.3652ZM13.0938 12.835L12.858 13.0706C12.9719 13.1846 12.9719 13.3692 12.858 13.483L13.0938 13.7188L13.3295 13.9545C13.7037 13.5802 13.7035 12.9735 13.3295 12.5993L13.0938 12.835ZM13.0938 13.7188L12.8581 13.483C12.7442 13.5968 12.5595 13.5968 12.4456 13.483L12.21 13.7188L11.9743 13.9545C12.3485 14.3286 12.9552 14.3285 13.3294 13.9545L13.0938 13.7188ZM12.21 13.7188L12.4457 13.483L9.7982 10.8356L9.5625 11.0713L9.3268 11.307L11.9743 13.9545L12.21 13.7188ZM9.5625 11.0713L9.79586 10.8333C9.76793 10.8059 9.74544 10.7727 9.73019 10.7356L9.42188 10.8623L9.11356 10.989C9.1633 11.11 9.23691 11.2189 9.32914 11.3093L9.5625 11.0713ZM9.42188 10.8623L9.73031 10.7359C9.73229 10.7407 9.73355 10.7443 9.73413 10.746C9.73466 10.7476 9.73481 10.7482 9.73429 10.7465C9.73404 10.7456 9.73374 10.7446 9.73324 10.743C9.7328 10.7415 9.73214 10.7392 9.73144 10.7369C9.73005 10.7323 9.72793 10.7254 9.72529 10.7175L9.40918 10.8232L9.09307 10.929C9.0926 10.9276 9.0925 10.9272 9.09308 10.9291C9.09337 10.9301 9.09368 10.9311 9.09422 10.9329C9.09469 10.9345 9.09537 10.9368 9.09611 10.9393C9.09883 10.9483 9.10461 10.9672 9.11344 10.9887L9.42188 10.8623ZM9.40918 10.8232L9.72521 10.7172C9.71338 10.682 9.70833 10.6518 9.70833 10.625H9.375H9.04167C9.04167 10.7372 9.06307 10.8396 9.09315 10.9292L9.40918 10.8232ZM9.375 10.625H9.70833V5.625H9.375H9.04167V10.625H9.375ZM9.375 5.625H9.70833C9.70833 5.46392 9.83892 5.33333 10 5.33333V5V4.66667C9.47073 4.66667 9.04167 5.09573 9.04167 5.625H9.375Z" fill="#FF8C1A"/>
</svg>
