<svg width="122" height="27" viewBox="0 0 122 27" fill="none" xmlns="http://www.w3.org/2000/svg">
<path d="M91.4895 17.2189L91.5585 17.0709H94.1784L94.5904 14.408H86.3041L86.7934 13.7348L87.2576 13.0165H94.4712L94.8517 10.5594H90.8079L91.1801 10.2014C92.0834 9.3309 92.9971 8.20527 93.9004 6.84809L91.4143 5.86183L91.293 6.04193C90.5298 7.18256 89.8001 8.08521 89.1247 8.72628C88.4368 9.38021 87.7008 9.85405 86.9376 10.1371C86.1828 10.4179 85.2921 10.5594 84.2885 10.5594H79.3456L78.965 13.0165H83.8891L82.9482 14.408H78.3817L77.9698 17.0709H81.1333L80.8594 17.4054C80.4956 17.8492 80.3492 18.0486 80.2907 18.1386L80.2677 18.1687C79.5798 18.9663 79.4062 19.1699 79.3811 19.2021L79.3602 19.2278C79.2097 19.3843 79.1219 19.558 79.0905 19.7617C79.0675 19.9053 79.0696 19.9825 79.0758 20.0211C79.1198 20.3534 79.3079 20.6064 79.6508 20.793C79.954 20.9452 80.5186 21.2089 81.3236 21.5756L82.5718 22.1823L82.1056 22.3774C80.6273 22.9992 78.7079 23.5416 76.3953 23.9876L76.8909 26.3761L76.9264 26.3718C80.4475 25.8229 84.2236 24.47 85.4301 23.6639L85.5263 23.6167L85.612 23.6574C85.7417 23.7175 86.1912 23.9533 87.1133 24.4379C87.5628 24.648 87.9873 24.8538 88.372 25.0489C88.7546 25.2419 89.1017 25.4177 89.4112 25.5742L90.9689 26.3739L92.7734 24.172C92.4263 23.9705 91.7425 23.6253 90.7222 23.1386L88.05 21.7857L88.2884 21.567C89.6328 20.332 90.7096 18.8698 91.4874 17.2167L91.4895 17.2189ZM85.6246 20.3577L85.5096 20.4542L82.8248 19.1464L83.0318 18.9277C83.4437 18.4946 83.8724 17.9135 84.3094 17.1953L84.3847 17.0709H88.3114L88.1441 17.3689C87.5168 18.4796 86.67 19.4873 85.6246 20.3577Z" fill="#575757"/>
<path d="M78.39 11.0933C77.9447 11.2134 76.5751 11.7151 76.5751 11.7151L77.2338 7.44842H79.2368L79.6216 4.96133H77.6185L78.2813 0.675375H75.5171L74.8543 4.96133H72.0107L71.626 7.44842H74.4696L73.6562 12.7099C73.6562 12.7099 71.1262 13.6619 69.9532 14.1186L70.5533 16.492L73.2318 15.4479L72.224 21.9679C72.1341 22.5532 71.6908 23.6424 69.7232 23.6424H68.9266L68.5356 26.5476H69.1712C74.2438 26.5476 74.7602 23.443 74.9191 22.4139L76.159 14.3844C76.159 14.3844 78.1287 13.6769 78.873 13.4603L78.3859 11.089L78.39 11.0933Z" fill="#575757"/>
<path d="M81.3487 6.91241C82.1097 8.19241 82.7245 9.30517 83.174 10.2271L83.2932 10.4737L85.9821 9.29231C85.7207 8.74343 85.4677 8.23958 85.2294 7.78718C84.9638 7.28548 84.6335 6.71087 84.2467 6.07623L84.0355 5.7289H94.8601L95.2406 3.27182H89.2376L89.4175 2.96951C89.8168 2.29842 90.0949 1.54157 90.2496 0.692528H87.4813C87.3433 1.59946 86.9711 2.30914 86.3794 2.78083C85.9277 3.10887 85.3632 3.27182 84.692 3.27182H81.0706L80.69 5.7289H83.5901L81.3487 6.91241Z" fill="#575757"/>
<path d="M100.731 5.85968C101.022 6.47503 101.196 6.8438 101.285 7.03462L101.304 7.07536L104.188 5.94759L104.242 5.92615L104.221 5.88327C104.131 5.68602 103.968 5.31295 103.673 4.63329C103.293 3.75208 102.59 2.2148 101.584 0.909076L101.555 0.872628L98.8955 2.56214L98.9227 2.59859C99.7361 3.66632 100.342 5.04923 100.727 5.86397L100.731 5.85968Z" fill="#575757"/>
<path d="M110.709 23.7346C108.547 23.7346 107.324 23.726 106.968 23.7046C105.501 23.6446 104.315 23.2222 103.443 22.4482C102.571 21.6742 102.116 20.6279 102.088 19.3393V19.3286L102.092 19.32C102.879 17.5748 103.389 15.8681 103.508 13.8506C103.596 12.3926 103.429 11.1769 102.607 10.1928C101.812 9.24085 100.43 8.74343 98.0863 8.71341H97.9211L97.4779 11.58H97.6389C98.5191 11.595 99.1527 11.6829 99.5792 11.8502C100.039 12.0324 100.319 12.2854 100.409 12.6027C100.499 12.9136 100.503 13.3338 100.424 13.8506C100.083 16.0568 99.3681 18.1558 98.3017 20.0897C97.2709 21.9572 95.9494 23.6017 94.3792 24.9739L94.2579 25.0789L96.3969 27L96.5223 26.8907C97.6995 25.8658 98.7931 24.6823 99.7695 23.3701L99.8218 23.3015L99.8636 23.3658C100.499 24.3242 101.392 25.0918 102.517 25.6471C103.642 26.2046 104.949 26.5176 106.396 26.5755C106.807 26.5948 108.156 26.6055 110.402 26.6055C113.772 26.6055 116.177 26.5948 117.542 26.5755H120.357L120.8 23.7067H117.985C116.683 23.726 114.303 23.7368 110.707 23.7368L110.709 23.7346Z" fill="#575757"/>
<path d="M113.956 11.5671L114.489 8.11522H118.276C119.169 8.11522 119.953 7.84507 120.676 7.28976C121.35 6.77305 121.749 6.177 121.895 5.47376H118.077L118.257 5.29151C118.274 5.2765 119.608 3.99007 120.595 1.46867L118.172 0.793298C117.565 2.11618 116.986 3.05956 116.12 3.88287C115.048 4.90558 114.364 5.45231 113.388 5.4759H111.332L112.819 4.45319L110.341 0.776145L108.346 2.12904L110.523 5.47804H106.458L106.051 8.11951H111.934L111.401 11.5714H104.802L104.388 14.2536H110.751L110.55 14.6053C110.044 15.4886 109.024 16.4406 107.842 17.504C106.634 18.5889 104.919 19.8475 103.245 20.8745L104.761 22.8127C107.809 20.9795 110.126 19.1742 111.658 17.4354L112.079 16.9873L117.672 23.2329L119.853 21.2282L113.425 14.2493H118.383C119.273 14.2493 120.06 13.9792 120.783 13.4239C121.379 12.9672 121.818 12.294 122 11.5671H113.956Z" fill="#575757"/>
<path d="M43.0245 1.04844L40.3962 0C39.6456 1.30358 38.9201 2.24053 37.9018 3.63845H31.2214L30.7865 6.45144H35.7293C34.9369 7.53847 33.6698 9.41237 32.0222 11.4299C31.6939 11.8201 31.4744 12.0903 31.3614 12.2447L30.9286 15.0491H40.5468L39.9948 18.6211H28.1038L27.6543 21.5327H39.5452L38.7737 26.5262H41.6989L42.4704 21.5327H49.6652C51.2334 21.5327 52.7054 20.2291 52.9542 18.6211H42.92L43.472 15.0491H48.396C49.9642 15.0491 51.4195 13.8527 51.6683 12.2447H43.9048L44.5697 7.93727H41.6445L40.9796 12.2447H35.0268C36.3483 10.6152 37.791 8.47114 39.2609 6.45144H50.6333C52.2642 6.45144 54.0728 5.30866 54.3321 3.63845H41.2242C41.9017 2.70793 42.4202 2.05829 43.0224 1.04844H43.0245Z" fill="#575757"/>
<path d="M57.8783 26.1831H60.4522L65.5812 1.09775H63.0073L57.8783 26.1831Z" fill="#575757"/>
<path d="M9.07661 11.9895L9.27315 10.8403H12.4869L12.9155 8.05733H9.74779L10.3667 4.42532C11.5815 4.20019 12.7315 3.89359 13.8794 3.49265L13.3922 0.86834C10.8121 1.7667 8.29461 2.13333 4.70035 2.13333L4.27171 4.9163C5.45517 4.9163 6.54662 4.87557 7.57325 4.79195C7.4938 5.28937 7.41643 5.80608 7.34743 6.27777C7.2638 6.83951 7.19062 7.32407 7.14043 7.60923C7.11325 7.75931 7.08398 7.90939 7.05261 8.05733H3.21999L2.79136 10.8403H6.15562C4.73589 14.1357 2.30417 16.8479 0.407726 18.962L0 19.4165L1.85881 21.1146L2.26027 20.6665C3.29526 19.513 4.47453 18.1987 5.59735 16.7064L3.96226 26.0866L6.63025 26.1338L8.42216 15.8381C8.89679 16.5092 9.34006 17.2188 9.7687 17.9221L12.1335 16.194C11.2407 14.7253 10.2789 13.2288 9.08079 11.9917L9.07661 11.9895Z" fill="#575757"/>
<path d="M23.2027 23.4966L26.0631 4.97848C26.337 3.20321 25.1703 1.76241 23.4537 1.76241H17.6911C15.9766 1.76241 14.3624 3.20321 14.0885 4.97848L11.2281 23.4966H9.04106L8.63543 26.1252H24.8504L25.256 23.4966H23.2007H23.2027ZM20.541 23.4966H13.8899L14.6029 18.8762H21.254L20.541 23.4966ZM21.6597 16.2562H15.0085L15.7382 11.5285H22.3894L21.6597 16.2562ZM22.795 8.90209H16.1439L16.6582 5.56809C16.7502 4.97634 17.2876 4.49607 17.8584 4.49607H22.4396C23.0104 4.49607 23.4014 4.97634 23.3094 5.56809L22.795 8.90209Z" fill="#575757"/>
</svg>
