<svg width="136" height="34" viewBox="0 0 136 34" fill="none" xmlns="http://www.w3.org/2000/svg">
<path fill-rule="evenodd" clip-rule="evenodd" d="M49.0094 0.865036L45.3445 0C42.3515 6.71989 38.9677 12.3834 35.1848 16.9907L38.4023 19.1511C38.5436 18.9601 38.7598 18.6717 39.0508 18.2877C39.6411 17.4223 40.1815 16.4822 40.5972 15.9987L37.7954 33.6929H41.4619L45.5939 7.62888C46.8652 5.32659 48.0868 3.07404 49.0094 0.865036ZM49.0094 0.865036L49.011 0.865402V0.861252L49.0094 0.865036ZM57.6908 0.701462H61.4986C62.8205 5.88354 65.3148 10.221 69.4218 14.2533L66.0962 16.8454C65.3065 16.0775 64.4916 15.1665 63.6437 14.1101C61.4487 11.518 60.0853 8.28261 58.8797 5.20906C56.8261 8.18507 53.8996 11.3748 50.7735 13.9669H54.0991L53.301 19.0058C52.3865 24.742 49.9838 29.5671 45.0286 33.6929L42.3847 31.5324C46.7746 28.077 48.6867 23.9036 49.46 19.0058L50.1417 14.685C49.884 14.8759 49.435 15.2619 48.7782 15.8368C48.1297 16.3183 47.6226 16.7001 47.2318 16.9886L45.0286 14.0831C50.017 10.4368 54.4483 6.17408 57.6908 0.701462ZM29.6145 7.40475H26.7793V7.4006L26.3969 9.79967H34.8688C34.5613 11.7235 32.5576 13.1472 30.3627 13.1472H14.2419L14.591 10.9598H12.4461L11.5481 16.6213L13.7098 15.7019L14.3334 17.7897L14.5827 16.2311H25.6487L25.9979 14.025H29.7392L29.3817 16.2311H32.807L32.2583 19.7135H28.8496L28.4505 22.1333H31.8675L31.2773 25.8751H27.8436L27.5027 27.9567C27.1535 30.1357 25.7485 32.0077 23.6367 33.0869C22.4478 33.697 21.1924 34 19.9037 34C18.615 34 17.3846 33.6721 16.4284 33.0163C14.8321 31.9268 14.1754 30.0569 14.616 27.882C15.3892 24.0696 18.4737 22.1375 23.7614 22.1375H24.7091L25.1082 19.7156H14.034L14.0756 19.4437L10.8914 20.801L8.82947 33.7987H5.02996L6.81748 22.5401L1.03925 25.0076L0 21.5564L7.47428 18.3666L8.56341 11.4662C7.29137 12.0618 6.02764 13.3236 4.92188 15.9198C4.872 16.0402 4.82211 16.1668 4.77223 16.2913L1.27205 15.3989C1.33025 15.264 1.38844 15.1312 1.43833 14.9984C3.2009 10.6941 4.1071 8.25147 4.88863 2.92619L8.64655 2.88261C8.34725 4.88737 8.03132 6.52689 7.6655 8.00452C8.15603 7.79906 8.67149 7.63303 9.19527 7.50851L10.2761 0.705612H14.0756L13.0446 7.2242H15.6386L15.2312 9.80382H22.664L23.0463 7.40475H16.6446L17.1767 4.05933H23.5785L24.0857 0.8405H27.8187L27.3115 4.05933H34.1206C33.8213 5.98315 31.8176 7.40475 29.6145 7.40475ZM95.428 29.123C95.162 29.5443 94.8543 29.8992 94.4719 30.0569C93.732 30.2997 93.3828 29.8556 93.416 29.152C93.4327 28.8989 93.5407 28.3572 93.574 28.1019C95.0372 19.2528 96.4589 10.3579 97.7725 1.50668H85.6425L85.3598 3.29561C85.26 3.92028 84.8776 6.42726 84.4618 9.13763C84.0627 11.7152 83.6804 14.2305 83.5972 14.7701C83.4143 15.9032 83.2314 16.9699 83.0152 17.9868C81.7515 15.9136 79.4319 12.1261 78.6753 10.8934L78.8915 9.56931H82.8822L83.4476 5.99353H79.4568L80.2633 0.892395H76.68L75.8735 5.99353H71.5419L70.9765 9.56931H74.8509C73.3461 13.4751 70.9433 17.5676 67.4265 22.2288L70.2117 24.0551C71.5669 22.2578 72.7724 20.5353 73.8282 18.8626L71.4837 33.6472H75.0671L77.7441 16.7561C78.5756 18.1134 79.4651 19.5724 80.1719 20.7242L82.8157 18.9145C81.7182 23.8122 80.0471 27.5437 76.3224 31.7026L78.8666 33.8215C84.8027 27.1971 86.1412 21.2721 87.1722 14.768C87.2554 14.2243 87.6461 11.7007 88.0452 9.11481C88.2863 7.56247 88.4775 6.25916 88.6604 5.08038H93.5989C93.2082 7.37776 92.8423 9.54233 92.543 11.4682C91.6368 17.0716 90.7057 23.1212 89.8493 28.7391C89.5583 30.3952 89.9657 32.0866 91.2876 33.0329C92.9338 34.2241 95.6359 33.7281 97.2155 32.0492C99.2026 29.9448 99.8427 27.2843 100.117 24.8001H97.0077C96.6502 26.2487 96.2178 27.8799 95.428 29.123ZM136 1.73082C135.709 3.52805 133.739 4.98285 131.585 4.98285H126.182L125.866 6.96478H133.656L132.309 15.4508H104.865L106.212 6.96478H113.835L114.151 4.98285H105.513L106.029 1.73082H136ZM117.901 6.96478H121.792L122.108 4.98285H118.217L117.901 6.96478ZM109.255 12.3399H112.978L113.336 10.0757H109.612L109.255 12.3399ZM117.044 12.3399H120.944L121.301 10.0757H117.402L117.044 12.3399ZM128.908 12.3399L129.266 10.0757H125.367L125.01 12.3399H128.908ZM60.5508 33.5497H56.7181L59.8026 14.1101H63.6353L60.5508 33.5497ZM105.488 16.999H131.901C131.619 18.7962 129.64 20.251 127.486 20.251H104.973L105.488 16.999ZM115.83 24.6797H101.389L101.905 21.4277H133.531L133.015 24.6797H119.705L119.622 25.1923C120.437 25.2255 121.226 25.2919 121.991 25.4019C127.611 26.2072 131.893 29.0275 132.076 29.1479L129.947 31.9786C129.906 31.9558 125.874 29.5381 120.96 28.8324C120.353 28.7453 119.722 28.6893 119.073 28.656L119.023 28.9404C118.632 31.4349 116.753 33.5414 113.319 33.5414H110.792L111.407 29.6813H113.935C114.608 29.6813 115.115 29.1956 115.157 28.9404L115.19 28.737C110.609 29.1126 105.846 30.362 102.944 31.5843C102.561 31.7794 102.187 31.9475 101.83 32.0907L100.807 28.9798C101.106 28.8304 101.439 28.6789 101.788 28.5253C103.418 27.664 103.9 26.6451 104.116 25.2629H107.583C107.5 25.7838 107.384 26.2653 107.243 26.7094C109.878 26.0266 112.837 25.485 115.739 25.2691L115.83 24.6797ZM22.3314 29.8203C23.1461 29.4032 23.6284 28.7743 23.7614 27.9484V27.9442L24.094 25.8751H23.1711C18.773 25.8751 18.4986 27.2344 18.3323 28.048C18.166 28.8864 18.349 29.453 18.906 29.8348C19.7374 30.4014 21.209 30.3952 22.3314 29.8203Z" fill="#575757"/>
</svg>
