<svg width="78" height="27" viewBox="0 0 78 27" fill="none" xmlns="http://www.w3.org/2000/svg">
<path fill-rule="evenodd" clip-rule="evenodd" d="M48.3962 6.43508C49.996 6.43508 51.7703 5.29521 52.0246 3.62923H39.1661C39.8307 2.70107 40.3394 2.05307 40.9301 1.04578L38.3518 0C37.6155 1.30027 36.9037 2.23486 35.9049 3.62923H29.3515L28.9249 6.43508H33.7738C32.9963 7.51937 31.7533 9.38851 30.1371 11.4009C29.815 11.7902 29.5996 12.0597 29.4889 12.2136L29.0644 15.0109H38.4995L37.958 18.5739H26.2933L25.8523 21.478H37.517L36.7602 26.459H39.6297L40.3866 21.478H47.4445C48.9828 21.478 50.4268 20.1778 50.6709 18.5739H40.8276L41.369 15.0109H46.1994C47.7378 15.0109 49.1653 13.8176 49.4095 12.2136H41.7936L42.4459 7.91713H39.5764L38.9241 12.2136H33.0845C34.3809 10.5883 35.7961 8.44966 37.2381 6.43508H48.3942H48.3962ZM17.8735 0.688641H14.5445C12.7867 12.2094 11.2976 17.4083 0 24.4422L1.9137 26.9979C8.13887 23.4071 11.3981 19.6068 13.64 15.7531L22.1008 26.9422L24.5253 24.8422L15.1927 12.513C16.4951 9.16182 17.1597 5.36578 17.8735 0.688641ZM74.6649 3.73828H74.667C76.2927 3.73731 77.7847 2.58925 78 1.17195H55.3536L54.9639 3.73828H61.4926L61.2547 5.30162H55.493L54.4757 11.9976H75.2146L76.232 5.30162H70.3432L70.5811 3.73828H74.6649ZM67.2686 5.30162H64.3252L64.5631 3.73828H67.5065L67.2686 5.30162ZM7.45591 4.42051C8.21893 6.90344 9.37986 9.37782 10.8157 11.5805H10.8177L8.28661 13.531C6.72571 11.1357 5.46223 8.44111 4.62946 5.73363L7.45591 4.42051ZM26.4637 5.80634L24.031 4.49965C22.5194 6.98044 20.6139 9.45481 18.5177 11.6597L20.46 13.6059C22.7388 11.2106 24.8146 8.51383 26.4616 5.80849L26.4637 5.80634ZM60.6085 9.54249H57.7924L58.0631 7.75674H60.8793L60.6085 9.54249ZM66.6245 9.54249H63.6812L63.9518 7.75674H66.8953L66.6245 9.54249ZM72.9133 7.75674L72.6425 9.54247H69.6971L69.9678 7.75674H72.9133ZM54.9456 13.2209H74.903C74.6876 14.6388 73.1944 15.7873 71.5678 15.7873H54.5559L54.9456 13.2209ZM51.8523 19.2795H62.7643L62.6945 19.7436C60.5019 19.9148 58.2621 20.3425 56.2745 20.8814C56.3832 20.5307 56.4694 20.15 56.5329 19.7394H53.9116C53.7455 20.8301 53.3825 21.6342 52.1518 22.3143C51.8872 22.4341 51.639 22.5538 51.4113 22.6714L52.1866 25.1265C52.4554 25.0132 52.7384 24.8806 53.0276 24.7267C55.2202 23.7622 58.8179 22.7763 62.2781 22.4811L62.2535 22.6415C62.2228 22.8425 61.8392 23.2254 61.3305 23.2254H59.421L58.9574 26.2707H60.867C63.4576 26.2707 64.877 24.609 65.1764 22.6415L65.2113 22.4169C65.7035 22.4426 66.1814 22.4875 66.6409 22.5559C70.3514 23.112 73.3993 25.0196 73.4281 25.0389L75.0361 22.804C74.9008 22.7099 71.662 20.4837 67.4183 19.8484C66.8419 19.7629 66.2429 19.7095 65.6276 19.6837L65.6892 19.2795H75.748L76.1376 16.7132H52.242L51.8523 19.2795Z" fill="#575757"/>
</svg>
